<mxfile host="app.diagrams.net" modified="2023-11-28T16:15:22.496Z" agent="Mozilla/5.0 (Macintosh; Intel Mac OS X 10_15_7) AppleWebKit/537.36 (KHTML, like Gecko) Chrome/119.0.0.0 Safari/537.36" version="22.1.4" etag="1QkV0xE75g8vkinORVHS" type="github">
  <diagram name="Side-1" id="3f7KCQB3TnniC0oNGBaN">
    <mxGraphModel>
      <root>
        <mxCell id="0" />
        <mxCell id="1" parent="0" />
      </root>
    </mxGraphModel>
  </diagram>
</mxfile>
